<?xml version="1.0" encoding="UTF-8"?>
<svg id="Layer_1" data-name="Layer 1" xmlns="http://www.w3.org/2000/svg" version="1.1" viewBox="0 0 448 512">
  <defs>
    <style>
      .cls-1 {
        fill: #000;
        stroke-width: 0px;
      }
    </style>
  </defs>
  <path class="cls-1" d="M400,32H48C21.5,32,0,53.5,0,80v352c0,26.5,21.5,48,48,48h352c26.5,0,48-21.5,48-48V80c0-26.5-21.5-48-48-48ZM224,92c24.2,0,43.7,19.6,43.7,43.7s-19.6,43.7-43.7,43.7-43.7-19.6-43.7-43.7,19.6-43.7,43.7-43.7ZM224,197.2c68.5,0,70.1,19.1,69.4,23.9-.2,1.2-.2,2.4-.3,3.6-2.1,38.9-52.2,47.5-65.8,47.4-2.2,0-4.4,0-6.6,0-14.8.2-63.7-8.5-65.8-47.4,0-1.2-.1-2.4-.3-3.6-.7-4.8.9-23.9,69.4-23.9ZM283.7,394.7c0,8.4-6.9,15.3-15.3,15.3h-134.6c-8.4,0-15.3-6.9-15.3-15.3v-4.5c0-8.4,6.9-15.3,15.3-15.3h134.6c8.4,0,15.3,6.9,15.3,15.3v4.5ZM329.5,325.1c0,8.4-6.9,15.3-15.3,15.3h-180.4c-8.4,0-15.3-6.9-15.3-15.3v-4.5c0-8.4,6.9-15.3,15.3-15.3h180.4c8.4,0,15.3,6.9,15.3,15.3v4.5Z"/>
</svg>